<?xml version="1.0" encoding="UTF-8" standalone="no"?><!DOCTYPE svg PUBLIC "-//W3C//DTD SVG 1.1//EN" "http://www.w3.org/Graphics/SVG/1.1/DTD/svg11.dtd"><svg width="100%" height="100%" viewBox="0 0 2077 380" version="1.1" xmlns="http://www.w3.org/2000/svg" xmlns:xlink="http://www.w3.org/1999/xlink" xml:space="preserve" xmlns:serif="http://www.serif.com/" style="fill-rule:evenodd;clip-rule:evenodd;stroke-linejoin:round;stroke-miterlimit:2;"><g><path d="M206.025,373.87l0,-368.086l-51.506,0l0,147.234l-103.013,0l0,-147.234l-51.506,0l0,368.086l51.506,0l0,-170.371l103.013,0l0,170.371l51.506,0Z" style="fill:#fff;fill-rule:nonzero;"/><path d="M489.31,373.87l-89.873,-368.086l-53.083,0l-90.399,368.086l54.66,0l21.023,-97.28l79.887,0l21.549,97.28l56.237,0Zm-88.297,-146.183l-58.864,0l13.665,-62.049c5.256,-24.714 13.139,-66.781 15.767,-80.453c2.628,13.672 10.511,56.265 15.767,80.453l13.665,62.049Z" style="fill:#fff;fill-rule:nonzero;"/><path d="M734.228,264.496l0,-258.712l-50.981,0l0,260.29c0,28.395 -11.563,61.523 -52.032,61.523c-38.367,0 -51.506,-31.55 -51.506,-62.049l0,-259.764l-51.506,0l0,261.867c0,66.781 42.046,112.003 103.013,112.003c63.069,0 103.013,-43.645 103.013,-115.158Z" style="fill:#fff;fill-rule:nonzero;"/><path d="M975.467,373.87l0,-50.48l-117.729,0l0,-317.606l-51.506,0l0,368.086l169.235,0Z" style="fill:#fff;fill-rule:nonzero;"/><path d="M1188.325,5.784l-54.66,0l-42.046,184.569c-4.205,19.456 -13.665,64.678 -16.293,77.824c-2.628,-13.146 -12.088,-58.894 -16.293,-77.824l-42.572,-184.569l-56.237,0l94.603,368.086l38.367,0l95.129,-368.086Z" style="fill:#fff;fill-rule:nonzero;"/><rect x="1240.882" y="5.784" width="51.506" height="368.086" style="fill:#fff;fill-rule:nonzero;"/><path d="M1543.613,278.694c0,-61.523 -36.265,-89.918 -81.99,-119.365c-40.995,-26.292 -53.609,-41.541 -53.609,-68.885c0,-23.137 13.665,-38.912 38.367,-38.912c23.125,0 35.214,8.413 53.083,32.076l37.841,-33.654c-22.074,-32.076 -46.776,-49.955 -89.348,-49.955c-57.288,0 -93.027,38.386 -93.027,92.022c0,57.842 32.586,84.66 74.106,112.003c49.404,32.602 61.492,48.903 61.492,77.298c0,29.973 -16.293,46.8 -44.148,46.8c-22.6,0 -39.944,-9.465 -59.916,-41.015l-40.469,32.602c21.023,35.757 50.981,59.945 97.231,59.945c65.171,0 100.385,-42.067 100.385,-100.961Z" style="fill:#fff;fill-rule:nonzero;"/><path d="M1809.029,189.301c0,-106.745 -33.637,-189.301 -111.422,-189.301c-77.785,0 -110.896,83.608 -110.896,190.353c0,106.745 32.586,189.301 110.371,189.301c77.785,0 111.947,-83.608 111.947,-190.353Zm-52.557,1.052c0,68.359 -13.139,137.769 -57.813,137.769c-44.674,0 -59.39,-70.462 -59.39,-138.821c0,-68.359 12.614,-137.769 57.288,-137.769c44.674,0 59.916,70.462 59.916,138.821Z" style="fill:#fff;fill-rule:nonzero;"/><path d="M2076.546,373.87l-58.864,-169.32c34.688,-13.672 57.813,-43.645 57.813,-96.754c0,-73.091 -48.878,-102.012 -102.487,-102.012l-103.538,0l0,368.086l51.506,0l0,-160.38l42.572,0l55.711,160.38l57.288,0Zm-54.134,-264.496c0,38.386 -20.497,54.687 -53.609,54.687l-47.827,0l0,-108.323l47.827,0c31.009,0 53.609,15.775 53.609,53.635Z" style="fill:#fff;fill-rule:nonzero;"/></g></svg>